<svg version="1.1" xmlns="http://www.w3.org/2000/svg" xmlns:xlink="http://www.w3.org/1999/xlink" width="1611.0478515625" height="552"><defs/><g><g><rect fill="#C0C0C0" stroke="none" x="375" y="87" width="248.0625" height="236" transform="matrix(1 0 0 1 2 -70)" fill-opacity="0.2"/></g><g><rect fill="#ffffff" stroke="none" x="368" y="80" width="248.0625" height="236" transform="matrix(1 0 0 1 2 -70)"/></g><g><path fill="none" stroke="#000000" paint-order="fill stroke markers" d=" M 370 10 L 618.0625 10 L 618.0625 246 L 370 246 L 370 10 Z Z" stroke-miterlimit="10" stroke-dasharray=""/></g><g><path fill="none" stroke="#000000" paint-order="fill stroke markers" d=" M 370 35 L 618.0625 35" stroke-miterlimit="10" stroke-dasharray=""/></g><g><path fill="none" stroke="#000000" paint-order="fill stroke markers" d=" M 370 178 L 618.0625 178" stroke-miterlimit="10" stroke-dasharray=""/></g><g><g><path fill="none" stroke="none"/><text fill="#000000" stroke="none" font-family="Arial" font-size="13px" font-style="normal" font-weight="bold" text-decoration="undefined" x="492.53125" y="93.5" text-anchor="middle" dominant-baseline="central" transform="matrix(1 0 0 1 2 -70)">User</text></g></g><g><g><path fill="none" stroke="none"/><text fill="#000000" stroke="none" font-family="Arial" font-size="13px" font-style="normal" font-weight="normal" text-decoration="undefined" x="373" y="116.5" text-anchor="start" dominant-baseline="central" transform="matrix(1 0 0 1 2 -70)">+id: int</text></g></g><g><g><path fill="none" stroke="none"/><text fill="#000000" stroke="none" font-family="Arial" font-size="13px" font-style="normal" font-weight="normal" text-decoration="undefined" x="373" y="131.5" text-anchor="start" dominant-baseline="central" transform="matrix(1 0 0 1 2 -70)">+username: str</text></g></g><g><g><path fill="none" stroke="none"/><text fill="#000000" stroke="none" font-family="Arial" font-size="13px" font-style="normal" font-weight="normal" text-decoration="undefined" x="373" y="146.5" text-anchor="start" dominant-baseline="central" transform="matrix(1 0 0 1 2 -70)">+email: str</text></g></g><g><g><path fill="none" stroke="none"/><text fill="#000000" stroke="none" font-family="Arial" font-size="13px" font-style="normal" font-weight="normal" text-decoration="undefined" x="373" y="161.5" text-anchor="start" dominant-baseline="central" transform="matrix(1 0 0 1 2 -70)">+email: str</text></g></g><g><g><path fill="none" stroke="none"/><text fill="#000000" stroke="none" font-family="Arial" font-size="13px" font-style="normal" font-weight="normal" text-decoration="undefined" x="373" y="176.5" text-anchor="start" dominant-baseline="central" transform="matrix(1 0 0 1 2 -70)">+password_hash: str</text></g></g><g><g><path fill="none" stroke="none"/><text fill="#000000" stroke="none" font-family="Arial" font-size="13px" font-style="normal" font-weight="normal" text-decoration="undefined" x="373" y="191.5" text-anchor="start" dominant-baseline="central" transform="matrix(1 0 0 1 2 -70)">+is_active: bool</text></g></g><g><g><path fill="none" stroke="none"/><text fill="#000000" stroke="none" font-family="Arial" font-size="13px" font-style="normal" font-weight="normal" text-decoration="undefined" x="373" y="206.5" text-anchor="start" dominant-baseline="central" transform="matrix(1 0 0 1 2 -70)">+created_at: datetime</text></g></g><g><g><path fill="none" stroke="none"/><text fill="#000000" stroke="none" font-family="Arial" font-size="13px" font-style="normal" font-weight="normal" text-decoration="undefined" x="373" y="221.5" text-anchor="start" dominant-baseline="central" transform="matrix(1 0 0 1 2 -70)">+updated_at: datetime</text></g></g><g><g><path fill="none" stroke="none"/><text fill="#000000" stroke="none" font-family="Arial" font-size="13px" font-style="normal" font-weight="normal" text-decoration="undefined" x="373" y="236.5" text-anchor="start" dominant-baseline="central" transform="matrix(1 0 0 1 2 -70)">+avatar_path: str</text></g></g><g><g><path fill="none" stroke="none"/><text fill="#000000" stroke="none" font-family="Arial" font-size="13px" font-style="normal" font-weight="normal" text-decoration="undefined" x="373" y="259.5" text-anchor="start" dominant-baseline="central" transform="matrix(1 0 0 1 2 -70)">+set_password(raw_password)()</text></g></g><g><g><path fill="none" stroke="none"/><text fill="#000000" stroke="none" font-family="Arial" font-size="13px" font-style="normal" font-weight="normal" text-decoration="undefined" x="373" y="274.5" text-anchor="start" dominant-baseline="central" transform="matrix(1 0 0 1 2 -70)">+verify_password(raw_password) : bool()</text></g></g><g><g><path fill="none" stroke="none"/><text fill="#000000" stroke="none" font-family="Arial" font-size="13px" font-style="normal" font-weight="normal" text-decoration="undefined" x="373" y="289.5" text-anchor="start" dominant-baseline="central" transform="matrix(1 0 0 1 2 -70)">+deactivate()()</text></g></g><g><g><path fill="none" stroke="none"/><text fill="#000000" stroke="none" font-family="Arial" font-size="13px" font-style="normal" font-weight="normal" text-decoration="undefined" x="373" y="304.5" text-anchor="start" dominant-baseline="central" transform="matrix(1 0 0 1 2 -70)">+activate()()</text></g></g><g><rect fill="#C0C0C0" stroke="none" x="87" y="223" width="102.12353515625" height="88" transform="matrix(1 0 0 1 2 -70)" fill-opacity="0.2"/></g><g><rect fill="#ffffff" stroke="none" x="80" y="216" width="102.12353515625" height="88" transform="matrix(1 0 0 1 2 -70)"/></g><g><path fill="none" stroke="#000000" paint-order="fill stroke markers" d=" M 82 146 L 184.12353515625 146 L 184.12353515625 234 L 82 234 L 82 146 Z Z" stroke-miterlimit="10" stroke-dasharray=""/></g><g><path fill="none" stroke="#000000" paint-order="fill stroke markers" d=" M 82 171 L 184.12353515625 171" stroke-miterlimit="10" stroke-dasharray=""/></g><g><path fill="none" stroke="#000000" paint-order="fill stroke markers" d=" M 82 224 L 184.12353515625 224" stroke-miterlimit="10" stroke-dasharray=""/></g><g><g><path fill="none" stroke="none"/><text fill="#000000" stroke="none" font-family="Arial" font-size="13px" font-style="normal" font-weight="bold" text-decoration="undefined" x="131.561767578125" y="229.5" text-anchor="middle" dominant-baseline="central" transform="matrix(1 0 0 1 2 -70)">Role</text></g></g><g><g><path fill="none" stroke="none"/><text fill="#000000" stroke="none" font-family="Arial" font-size="13px" font-style="normal" font-weight="normal" text-decoration="undefined" x="85" y="252.5" text-anchor="start" dominant-baseline="central" transform="matrix(1 0 0 1 2 -70)">+id: int</text></g></g><g><g><path fill="none" stroke="none"/><text fill="#000000" stroke="none" font-family="Arial" font-size="13px" font-style="normal" font-weight="normal" text-decoration="undefined" x="85" y="267.5" text-anchor="start" dominant-baseline="central" transform="matrix(1 0 0 1 2 -70)">+name: str</text></g></g><g><g><path fill="none" stroke="none"/><text fill="#000000" stroke="none" font-family="Arial" font-size="13px" font-style="normal" font-weight="normal" text-decoration="undefined" x="85" y="282.5" text-anchor="start" dominant-baseline="central" transform="matrix(1 0 0 1 2 -70)">+description: str</text></g></g><g><rect fill="#C0C0C0" stroke="none" x="15" y="431" width="102.12353515625" height="88" transform="matrix(1 0 0 1 2 -70)" fill-opacity="0.2"/></g><g><rect fill="#ffffff" stroke="none" x="8" y="424" width="102.12353515625" height="88" transform="matrix(1 0 0 1 2 -70)"/></g><g><path fill="none" stroke="#000000" paint-order="fill stroke markers" d=" M 10 354 L 112.12353515625 354 L 112.12353515625 442 L 10 442 L 10 354 Z Z" stroke-miterlimit="10" stroke-dasharray=""/></g><g><path fill="none" stroke="#000000" paint-order="fill stroke markers" d=" M 10 379 L 112.12353515625 379" stroke-miterlimit="10" stroke-dasharray=""/></g><g><path fill="none" stroke="#000000" paint-order="fill stroke markers" d=" M 10 432 L 112.12353515625 432" stroke-miterlimit="10" stroke-dasharray=""/></g><g><g><path fill="none" stroke="none"/><text fill="#000000" stroke="none" font-family="Arial" font-size="13px" font-style="normal" font-weight="bold" text-decoration="undefined" x="59.561767578125" y="437.5" text-anchor="middle" dominant-baseline="central" transform="matrix(1 0 0 1 2 -70)">Permission</text></g></g><g><g><path fill="none" stroke="none"/><text fill="#000000" stroke="none" font-family="Arial" font-size="13px" font-style="normal" font-weight="normal" text-decoration="undefined" x="13" y="460.5" text-anchor="start" dominant-baseline="central" transform="matrix(1 0 0 1 2 -70)">+id: int</text></g></g><g><g><path fill="none" stroke="none"/><text fill="#000000" stroke="none" font-family="Arial" font-size="13px" font-style="normal" font-weight="normal" text-decoration="undefined" x="13" y="475.5" text-anchor="start" dominant-baseline="central" transform="matrix(1 0 0 1 2 -70)">+name: str</text></g></g><g><g><path fill="none" stroke="none"/><text fill="#000000" stroke="none" font-family="Arial" font-size="13px" font-style="normal" font-weight="normal" text-decoration="undefined" x="13" y="490.5" text-anchor="start" dominant-baseline="central" transform="matrix(1 0 0 1 2 -70)">+description: str</text></g></g><g><rect fill="#C0C0C0" stroke="none" x="143" y="431" width="144.7861328125" height="103" transform="matrix(1 0 0 1 2 -70)" fill-opacity="0.2"/></g><g><rect fill="#ffffff" stroke="none" x="136" y="424" width="144.7861328125" height="103" transform="matrix(1 0 0 1 2 -70)"/></g><g><path fill="none" stroke="#000000" paint-order="fill stroke markers" d=" M 138 354 L 282.7861328125 354 L 282.7861328125 457 L 138 457 L 138 354 Z Z" stroke-miterlimit="10" stroke-dasharray=""/></g><g><path fill="none" stroke="#000000" paint-order="fill stroke markers" d=" M 138 379 L 282.7861328125 379" stroke-miterlimit="10" stroke-dasharray=""/></g><g><path fill="none" stroke="#000000" paint-order="fill stroke markers" d=" M 138 447 L 282.7861328125 447" stroke-miterlimit="10" stroke-dasharray=""/></g><g><g><path fill="none" stroke="none"/><text fill="#000000" stroke="none" font-family="Arial" font-size="13px" font-style="normal" font-weight="bold" text-decoration="undefined" x="208.89306640625" y="437.5" text-anchor="middle" dominant-baseline="central" transform="matrix(1 0 0 1 2 -70)">UserRole</text></g></g><g><g><path fill="none" stroke="none"/><text fill="#000000" stroke="none" font-family="Arial" font-size="13px" font-style="normal" font-weight="normal" text-decoration="undefined" x="141" y="460.5" text-anchor="start" dominant-baseline="central" transform="matrix(1 0 0 1 2 -70)">+id: int</text></g></g><g><g><path fill="none" stroke="none"/><text fill="#000000" stroke="none" font-family="Arial" font-size="13px" font-style="normal" font-weight="normal" text-decoration="undefined" x="141" y="475.5" text-anchor="start" dominant-baseline="central" transform="matrix(1 0 0 1 2 -70)">+user_id: int</text></g></g><g><g><path fill="none" stroke="none"/><text fill="#000000" stroke="none" font-family="Arial" font-size="13px" font-style="normal" font-weight="normal" text-decoration="undefined" x="141" y="490.5" text-anchor="start" dominant-baseline="central" transform="matrix(1 0 0 1 2 -70)">+role_id: int</text></g></g><g><g><path fill="none" stroke="none"/><text fill="#000000" stroke="none" font-family="Arial" font-size="13px" font-style="normal" font-weight="normal" text-decoration="undefined" x="141" y="505.5" text-anchor="start" dominant-baseline="central" transform="matrix(1 0 0 1 2 -70)">+assigned_at: datetime</text></g></g><g><rect fill="#C0C0C0" stroke="none" x="311" y="407" width="134.63623046875" height="148" transform="matrix(1 0 0 1 2 -70)" fill-opacity="0.2"/></g><g><rect fill="#ffffff" stroke="none" x="304" y="400" width="134.63623046875" height="148" transform="matrix(1 0 0 1 2 -70)"/></g><g><path fill="none" stroke="#000000" paint-order="fill stroke markers" d=" M 306 330 L 440.63623046875 330 L 440.63623046875 478 L 306 478 L 306 330 Z Z" stroke-miterlimit="10" stroke-dasharray=""/></g><g><path fill="none" stroke="#000000" paint-order="fill stroke markers" d=" M 306 355 L 440.63623046875 355" stroke-miterlimit="10" stroke-dasharray=""/></g><g><path fill="none" stroke="#000000" paint-order="fill stroke markers" d=" M 306 468 L 440.63623046875 468" stroke-miterlimit="10" stroke-dasharray=""/></g><g><g><path fill="none" stroke="none"/><text fill="#000000" stroke="none" font-family="Arial" font-size="13px" font-style="normal" font-weight="bold" text-decoration="undefined" x="371.818115234375" y="413.5" text-anchor="middle" dominant-baseline="central" transform="matrix(1 0 0 1 2 -70)">AuditLog</text></g></g><g><g><path fill="none" stroke="none"/><text fill="#000000" stroke="none" font-family="Arial" font-size="13px" font-style="normal" font-weight="normal" text-decoration="undefined" x="309" y="436.5" text-anchor="start" dominant-baseline="central" transform="matrix(1 0 0 1 2 -70)">+id: int</text></g></g><g><g><path fill="none" stroke="none"/><text fill="#000000" stroke="none" font-family="Arial" font-size="13px" font-style="normal" font-weight="normal" text-decoration="undefined" x="309" y="451.5" text-anchor="start" dominant-baseline="central" transform="matrix(1 0 0 1 2 -70)">+actor_id: int</text></g></g><g><g><path fill="none" stroke="none"/><text fill="#000000" stroke="none" font-family="Arial" font-size="13px" font-style="normal" font-weight="normal" text-decoration="undefined" x="309" y="466.5" text-anchor="start" dominant-baseline="central" transform="matrix(1 0 0 1 2 -70)">+action: str</text></g></g><g><g><path fill="none" stroke="none"/><text fill="#000000" stroke="none" font-family="Arial" font-size="13px" font-style="normal" font-weight="normal" text-decoration="undefined" x="309" y="481.5" text-anchor="start" dominant-baseline="central" transform="matrix(1 0 0 1 2 -70)">+target_type: str</text></g></g><g><g><path fill="none" stroke="none"/><text fill="#000000" stroke="none" font-family="Arial" font-size="13px" font-style="normal" font-weight="normal" text-decoration="undefined" x="309" y="496.5" text-anchor="start" dominant-baseline="central" transform="matrix(1 0 0 1 2 -70)">+target_id: str</text></g></g><g><g><path fill="none" stroke="none"/><text fill="#000000" stroke="none" font-family="Arial" font-size="13px" font-style="normal" font-weight="normal" text-decoration="undefined" x="309" y="511.5" text-anchor="start" dominant-baseline="central" transform="matrix(1 0 0 1 2 -70)">+timestamp: datetime</text></g></g><g><g><path fill="none" stroke="none"/><text fill="#000000" stroke="none" font-family="Arial" font-size="13px" font-style="normal" font-weight="normal" text-decoration="undefined" x="309" y="526.5" text-anchor="start" dominant-baseline="central" transform="matrix(1 0 0 1 2 -70)">+details: JSON</text></g></g><g><rect fill="#C0C0C0" stroke="none" x="471" y="407" width="136.10888671875" height="133" transform="matrix(1 0 0 1 2 -70)" fill-opacity="0.2"/></g><g><rect fill="#ffffff" stroke="none" x="464" y="400" width="136.10888671875" height="133" transform="matrix(1 0 0 1 2 -70)"/></g><g><path fill="none" stroke="#000000" paint-order="fill stroke markers" d=" M 466 330 L 602.10888671875 330 L 602.10888671875 463 L 466 463 L 466 330 Z Z" stroke-miterlimit="10" stroke-dasharray=""/></g><g><path fill="none" stroke="#000000" paint-order="fill stroke markers" d=" M 466 355 L 602.10888671875 355" stroke-miterlimit="10" stroke-dasharray=""/></g><g><path fill="none" stroke="#000000" paint-order="fill stroke markers" d=" M 466 453 L 602.10888671875 453" stroke-miterlimit="10" stroke-dasharray=""/></g><g><g><path fill="none" stroke="none"/><text fill="#000000" stroke="none" font-family="Arial" font-size="13px" font-style="normal" font-weight="bold" text-decoration="undefined" x="532.554443359375" y="413.5" text-anchor="middle" dominant-baseline="central" transform="matrix(1 0 0 1 2 -70)">Session</text></g></g><g><g><path fill="none" stroke="none"/><text fill="#000000" stroke="none" font-family="Arial" font-size="13px" font-style="normal" font-weight="normal" text-decoration="undefined" x="469" y="436.5" text-anchor="start" dominant-baseline="central" transform="matrix(1 0 0 1 2 -70)">+session_id: str</text></g></g><g><g><path fill="none" stroke="none"/><text fill="#000000" stroke="none" font-family="Arial" font-size="13px" font-style="normal" font-weight="normal" text-decoration="undefined" x="469" y="451.5" text-anchor="start" dominant-baseline="central" transform="matrix(1 0 0 1 2 -70)">+user_id: int</text></g></g><g><g><path fill="none" stroke="none"/><text fill="#000000" stroke="none" font-family="Arial" font-size="13px" font-style="normal" font-weight="normal" text-decoration="undefined" x="469" y="466.5" text-anchor="start" dominant-baseline="central" transform="matrix(1 0 0 1 2 -70)">+created_at: datetime</text></g></g><g><g><path fill="none" stroke="none"/><text fill="#000000" stroke="none" font-family="Arial" font-size="13px" font-style="normal" font-weight="normal" text-decoration="undefined" x="469" y="481.5" text-anchor="start" dominant-baseline="central" transform="matrix(1 0 0 1 2 -70)">+expires_at: datetime</text></g></g><g><g><path fill="none" stroke="none"/><text fill="#000000" stroke="none" font-family="Arial" font-size="13px" font-style="normal" font-weight="normal" text-decoration="undefined" x="469" y="496.5" text-anchor="start" dominant-baseline="central" transform="matrix(1 0 0 1 2 -70)">+ip_address: str</text></g></g><g><g><path fill="none" stroke="none"/><text fill="#000000" stroke="none" font-family="Arial" font-size="13px" font-style="normal" font-weight="normal" text-decoration="undefined" x="469" y="511.5" text-anchor="start" dominant-baseline="central" transform="matrix(1 0 0 1 2 -70)">+user_agent: str</text></g></g><g><rect fill="#C0C0C0" stroke="none" x="631" y="415" width="134.6552734375" height="148" transform="matrix(1 0 0 1 2 -70)" fill-opacity="0.2"/></g><g><rect fill="#ffffff" stroke="none" x="624" y="408" width="134.6552734375" height="148" transform="matrix(1 0 0 1 2 -70)"/></g><g><path fill="none" stroke="#000000" paint-order="fill stroke markers" d=" M 626 338 L 760.6552734375 338 L 760.6552734375 486 L 626 486 L 626 338 Z Z" stroke-miterlimit="10" stroke-dasharray=""/></g><g><path fill="none" stroke="#000000" paint-order="fill stroke markers" d=" M 626 363 L 760.6552734375 363" stroke-miterlimit="10" stroke-dasharray=""/></g><g><path fill="none" stroke="#000000" paint-order="fill stroke markers" d=" M 626 476 L 760.6552734375 476" stroke-miterlimit="10" stroke-dasharray=""/></g><g><g><path fill="none" stroke="none"/><text fill="#000000" stroke="none" font-family="Arial" font-size="13px" font-style="normal" font-weight="bold" text-decoration="undefined" x="691.82763671875" y="421.5" text-anchor="middle" dominant-baseline="central" transform="matrix(1 0 0 1 2 -70)">Token</text></g></g><g><g><path fill="none" stroke="none"/><text fill="#000000" stroke="none" font-family="Arial" font-size="13px" font-style="normal" font-weight="normal" text-decoration="undefined" x="629" y="444.5" text-anchor="start" dominant-baseline="central" transform="matrix(1 0 0 1 2 -70)">+id: int</text></g></g><g><g><path fill="none" stroke="none"/><text fill="#000000" stroke="none" font-family="Arial" font-size="13px" font-style="normal" font-weight="normal" text-decoration="undefined" x="629" y="459.5" text-anchor="start" dominant-baseline="central" transform="matrix(1 0 0 1 2 -70)">+token: str</text></g></g><g><g><path fill="none" stroke="none"/><text fill="#000000" stroke="none" font-family="Arial" font-size="13px" font-style="normal" font-weight="normal" text-decoration="undefined" x="629" y="474.5" text-anchor="start" dominant-baseline="central" transform="matrix(1 0 0 1 2 -70)">+user_id: int</text></g></g><g><g><path fill="none" stroke="none"/><text fill="#000000" stroke="none" font-family="Arial" font-size="13px" font-style="normal" font-weight="normal" text-decoration="undefined" x="629" y="489.5" text-anchor="start" dominant-baseline="central" transform="matrix(1 0 0 1 2 -70)">+token_type: str</text></g></g><g><g><path fill="none" stroke="none"/><text fill="#000000" stroke="none" font-family="Arial" font-size="13px" font-style="normal" font-weight="normal" text-decoration="undefined" x="629" y="504.5" text-anchor="start" dominant-baseline="central" transform="matrix(1 0 0 1 2 -70)">+issued_at: datetime</text></g></g><g><g><path fill="none" stroke="none"/><text fill="#000000" stroke="none" font-family="Arial" font-size="13px" font-style="normal" font-weight="normal" text-decoration="undefined" x="629" y="519.5" text-anchor="start" dominant-baseline="central" transform="matrix(1 0 0 1 2 -70)">+expires_at: datetime</text></g></g><g><g><path fill="none" stroke="none"/><text fill="#000000" stroke="none" font-family="Arial" font-size="13px" font-style="normal" font-weight="normal" text-decoration="undefined" x="629" y="534.5" text-anchor="start" dominant-baseline="central" transform="matrix(1 0 0 1 2 -70)">+revoked: bool</text></g></g><g><rect fill="#C0C0C0" stroke="none" x="791" y="383" width="109.3662109375" height="193" transform="matrix(1 0 0 1 2 -70)" fill-opacity="0.2"/></g><g><rect fill="#ffffff" stroke="none" x="784" y="376" width="109.3662109375" height="193" transform="matrix(1 0 0 1 2 -70)"/></g><g><path fill="none" stroke="#000000" paint-order="fill stroke markers" d=" M 786 306 L 895.3662109375 306 L 895.3662109375 499 L 786 499 L 786 306 Z Z" stroke-miterlimit="10" stroke-dasharray=""/></g><g><path fill="none" stroke="#000000" paint-order="fill stroke markers" d=" M 786 331 L 895.3662109375 331" stroke-miterlimit="10" stroke-dasharray=""/></g><g><path fill="none" stroke="#000000" paint-order="fill stroke markers" d=" M 786 489 L 895.3662109375 489" stroke-miterlimit="10" stroke-dasharray=""/></g><g><g><path fill="none" stroke="none"/><text fill="#000000" stroke="none" font-family="Arial" font-size="13px" font-style="normal" font-weight="bold" text-decoration="undefined" x="839.18310546875" y="389.5" text-anchor="middle" dominant-baseline="central" transform="matrix(1 0 0 1 2 -70)">Address</text></g></g><g><g><path fill="none" stroke="none"/><text fill="#000000" stroke="none" font-family="Arial" font-size="13px" font-style="normal" font-weight="normal" text-decoration="undefined" x="789" y="412.5" text-anchor="start" dominant-baseline="central" transform="matrix(1 0 0 1 2 -70)">+id: int</text></g></g><g><g><path fill="none" stroke="none"/><text fill="#000000" stroke="none" font-family="Arial" font-size="13px" font-style="normal" font-weight="normal" text-decoration="undefined" x="789" y="427.5" text-anchor="start" dominant-baseline="central" transform="matrix(1 0 0 1 2 -70)">+user_id: int</text></g></g><g><g><path fill="none" stroke="none"/><text fill="#000000" stroke="none" font-family="Arial" font-size="13px" font-style="normal" font-weight="normal" text-decoration="undefined" x="789" y="442.5" text-anchor="start" dominant-baseline="central" transform="matrix(1 0 0 1 2 -70)">+label: str</text></g></g><g><g><path fill="none" stroke="none"/><text fill="#000000" stroke="none" font-family="Arial" font-size="13px" font-style="normal" font-weight="normal" text-decoration="undefined" x="789" y="457.5" text-anchor="start" dominant-baseline="central" transform="matrix(1 0 0 1 2 -70)">+recipient: str</text></g></g><g><g><path fill="none" stroke="none"/><text fill="#000000" stroke="none" font-family="Arial" font-size="13px" font-style="normal" font-weight="normal" text-decoration="undefined" x="789" y="472.5" text-anchor="start" dominant-baseline="central" transform="matrix(1 0 0 1 2 -70)">+line1: str</text></g></g><g><g><path fill="none" stroke="none"/><text fill="#000000" stroke="none" font-family="Arial" font-size="13px" font-style="normal" font-weight="normal" text-decoration="undefined" x="789" y="487.5" text-anchor="start" dominant-baseline="central" transform="matrix(1 0 0 1 2 -70)">+line2: str</text></g></g><g><g><path fill="none" stroke="none"/><text fill="#000000" stroke="none" font-family="Arial" font-size="13px" font-style="normal" font-weight="normal" text-decoration="undefined" x="789" y="502.5" text-anchor="start" dominant-baseline="central" transform="matrix(1 0 0 1 2 -70)">+city: str</text></g></g><g><g><path fill="none" stroke="none"/><text fill="#000000" stroke="none" font-family="Arial" font-size="13px" font-style="normal" font-weight="normal" text-decoration="undefined" x="789" y="517.5" text-anchor="start" dominant-baseline="central" transform="matrix(1 0 0 1 2 -70)">+postal_code: str</text></g></g><g><g><path fill="none" stroke="none"/><text fill="#000000" stroke="none" font-family="Arial" font-size="13px" font-style="normal" font-weight="normal" text-decoration="undefined" x="789" y="532.5" text-anchor="start" dominant-baseline="central" transform="matrix(1 0 0 1 2 -70)">+phone: str</text></g></g><g><g><path fill="none" stroke="none"/><text fill="#000000" stroke="none" font-family="Arial" font-size="13px" font-style="normal" font-weight="normal" text-decoration="undefined" x="789" y="547.5" text-anchor="start" dominant-baseline="central" transform="matrix(1 0 0 1 2 -70)">+is_default: bool</text></g></g><g><rect fill="#C0C0C0" stroke="none" x="927" y="399" width="119.4716796875" height="133" transform="matrix(1 0 0 1 2 -70)" fill-opacity="0.2"/></g><g><rect fill="#ffffff" stroke="none" x="920" y="392" width="119.4716796875" height="133" transform="matrix(1 0 0 1 2 -70)"/></g><g><path fill="none" stroke="#000000" paint-order="fill stroke markers" d=" M 922 322 L 1041.4716796875 322 L 1041.4716796875 455 L 922 455 L 922 322 Z Z" stroke-miterlimit="10" stroke-dasharray=""/></g><g><path fill="none" stroke="#000000" paint-order="fill stroke markers" d=" M 922 347 L 1041.4716796875 347" stroke-miterlimit="10" stroke-dasharray=""/></g><g><path fill="none" stroke="#000000" paint-order="fill stroke markers" d=" M 922 445 L 1041.4716796875 445" stroke-miterlimit="10" stroke-dasharray=""/></g><g><g><path fill="none" stroke="none"/><text fill="#000000" stroke="none" font-family="Arial" font-size="13px" font-style="normal" font-weight="bold" text-decoration="undefined" x="980.23583984375" y="405.5" text-anchor="middle" dominant-baseline="central" transform="matrix(1 0 0 1 2 -70)">Profile</text></g></g><g><g><path fill="none" stroke="none"/><text fill="#000000" stroke="none" font-family="Arial" font-size="13px" font-style="normal" font-weight="normal" text-decoration="undefined" x="925" y="428.5" text-anchor="start" dominant-baseline="central" transform="matrix(1 0 0 1 2 -70)">+id: int</text></g></g><g><g><path fill="none" stroke="none"/><text fill="#000000" stroke="none" font-family="Arial" font-size="13px" font-style="normal" font-weight="normal" text-decoration="undefined" x="925" y="443.5" text-anchor="start" dominant-baseline="central" transform="matrix(1 0 0 1 2 -70)">+user_id: int</text></g></g><g><g><path fill="none" stroke="none"/><text fill="#000000" stroke="none" font-family="Arial" font-size="13px" font-style="normal" font-weight="normal" text-decoration="undefined" x="925" y="458.5" text-anchor="start" dominant-baseline="central" transform="matrix(1 0 0 1 2 -70)">+display_name: str</text></g></g><g><g><path fill="none" stroke="none"/><text fill="#000000" stroke="none" font-family="Arial" font-size="13px" font-style="normal" font-weight="normal" text-decoration="undefined" x="925" y="473.5" text-anchor="start" dominant-baseline="central" transform="matrix(1 0 0 1 2 -70)">+phone: str</text></g></g><g><g><path fill="none" stroke="none"/><text fill="#000000" stroke="none" font-family="Arial" font-size="13px" font-style="normal" font-weight="normal" text-decoration="undefined" x="925" y="488.5" text-anchor="start" dominant-baseline="central" transform="matrix(1 0 0 1 2 -70)">+bio: text</text></g></g><g><g><path fill="none" stroke="none"/><text fill="#000000" stroke="none" font-family="Arial" font-size="13px" font-style="normal" font-weight="normal" text-decoration="undefined" x="925" y="503.5" text-anchor="start" dominant-baseline="central" transform="matrix(1 0 0 1 2 -70)">+locale: str</text></g></g><g><rect fill="#C0C0C0" stroke="none" x="1135" y="87" width="150.5244140625" height="88" transform="matrix(1 0 0 1 2 -70)" fill-opacity="0.2"/></g><g><rect fill="#ffffff" stroke="none" x="1128" y="80" width="150.5244140625" height="88" transform="matrix(1 0 0 1 2 -70)"/></g><g><path fill="none" stroke="#000000" paint-order="fill stroke markers" d=" M 1130 10 L 1280.5244140625 10 L 1280.5244140625 98 L 1130 98 L 1130 10 Z Z" stroke-miterlimit="10" stroke-dasharray=""/></g><g><path fill="none" stroke="#000000" paint-order="fill stroke markers" d=" M 1130 35 L 1280.5244140625 35" stroke-miterlimit="10" stroke-dasharray=""/></g><g><path fill="none" stroke="#000000" paint-order="fill stroke markers" d=" M 1130 45 L 1280.5244140625 45" stroke-miterlimit="10" stroke-dasharray=""/></g><g><g><path fill="none" stroke="none"/><text fill="#000000" stroke="none" font-family="Arial" font-size="13px" font-style="normal" font-weight="bold" text-decoration="undefined" x="1203.76220703125" y="93.5" text-anchor="middle" dominant-baseline="central" transform="matrix(1 0 0 1 2 -70)">AuthRouter</text></g></g><g><g><path fill="none" stroke="none"/><text fill="#000000" stroke="none" font-family="Arial" font-size="13px" font-style="normal" font-weight="normal" text-decoration="undefined" x="1133" y="126.5" text-anchor="start" dominant-baseline="central" transform="matrix(1 0 0 1 2 -70)">+POST_auth_login()()</text></g></g><g><g><path fill="none" stroke="none"/><text fill="#000000" stroke="none" font-family="Arial" font-size="13px" font-style="normal" font-weight="normal" text-decoration="undefined" x="1133" y="141.5" text-anchor="start" dominant-baseline="central" transform="matrix(1 0 0 1 2 -70)">+POST_auth_refresh()()</text></g></g><g><g><path fill="none" stroke="none"/><text fill="#000000" stroke="none" font-family="Arial" font-size="13px" font-style="normal" font-weight="normal" text-decoration="undefined" x="1133" y="156.5" text-anchor="start" dominant-baseline="central" transform="matrix(1 0 0 1 2 -70)">+POST_auth_logout()()</text></g></g><g><rect fill="#C0C0C0" stroke="none" x="1079" y="295" width="274.8369140625" height="133" transform="matrix(1 0 0 1 2 -70)" fill-opacity="0.2"/></g><g><rect fill="#ffffff" stroke="none" x="1072" y="288" width="274.8369140625" height="133" transform="matrix(1 0 0 1 2 -70)"/></g><g><path fill="none" stroke="#000000" paint-order="fill stroke markers" d=" M 1074 218 L 1348.8369140625 218 L 1348.8369140625 351 L 1074 351 L 1074 218 Z Z" stroke-miterlimit="10" stroke-dasharray=""/></g><g><path fill="none" stroke="#000000" paint-order="fill stroke markers" d=" M 1074 243 L 1348.8369140625 243" stroke-miterlimit="10" stroke-dasharray=""/></g><g><path fill="none" stroke="#000000" paint-order="fill stroke markers" d=" M 1074 253 L 1348.8369140625 253" stroke-miterlimit="10" stroke-dasharray=""/></g><g><g><path fill="none" stroke="none"/><text fill="#000000" stroke="none" font-family="Arial" font-size="13px" font-style="normal" font-weight="bold" text-decoration="undefined" x="1209.91845703125" y="301.5" text-anchor="middle" dominant-baseline="central" transform="matrix(1 0 0 1 2 -70)">AuthService</text></g></g><g><g><path fill="none" stroke="none"/><text fill="#000000" stroke="none" font-family="Arial" font-size="13px" font-style="normal" font-weight="normal" text-decoration="undefined" x="1077" y="334.5" text-anchor="start" dominant-baseline="central" transform="matrix(1 0 0 1 2 -70)">+authenticate(username_or_email, password)</text></g></g><g><g><path fill="none" stroke="none"/><text fill="#000000" stroke="none" font-family="Arial" font-size="13px" font-style="normal" font-weight="normal" text-decoration="undefined" x="1077" y="349.5" text-anchor="start" dominant-baseline="central" transform="matrix(1 0 0 1 2 -70)">+validate_access_token(token)</text></g></g><g><g><path fill="none" stroke="none"/><text fill="#000000" stroke="none" font-family="Arial" font-size="13px" font-style="normal" font-weight="normal" text-decoration="undefined" x="1077" y="364.5" text-anchor="start" dominant-baseline="central" transform="matrix(1 0 0 1 2 -70)">+refresh_tokens(refresh_token)</text></g></g><g><g><path fill="none" stroke="none"/><text fill="#000000" stroke="none" font-family="Arial" font-size="13px" font-style="normal" font-weight="normal" text-decoration="undefined" x="1077" y="379.5" text-anchor="start" dominant-baseline="central" transform="matrix(1 0 0 1 2 -70)">+revoke_token(token)</text></g></g><g><g><path fill="none" stroke="none"/><text fill="#000000" stroke="none" font-family="Arial" font-size="13px" font-style="normal" font-weight="normal" text-decoration="undefined" x="1077" y="394.5" text-anchor="start" dominant-baseline="central" transform="matrix(1 0 0 1 2 -70)">+send_password_reset(email)</text></g></g><g><g><path fill="none" stroke="none"/><text fill="#000000" stroke="none" font-family="Arial" font-size="13px" font-style="normal" font-weight="normal" text-decoration="undefined" x="1077" y="409.5" text-anchor="start" dominant-baseline="central" transform="matrix(1 0 0 1 2 -70)">+verify_email(token)</text></g></g><g><rect fill="#C0C0C0" stroke="none" x="1415" y="319" width="144.0244140625" height="103" transform="matrix(1 0 0 1 2 -70)" fill-opacity="0.2"/></g><g><rect fill="#ffffff" stroke="none" x="1408" y="312" width="144.0244140625" height="103" transform="matrix(1 0 0 1 2 -70)"/></g><g><path fill="none" stroke="#000000" paint-order="fill stroke markers" d=" M 1410 242 L 1554.0244140625 242 L 1554.0244140625 345 L 1410 345 L 1410 242 Z Z" stroke-miterlimit="10" stroke-dasharray=""/></g><g><path fill="none" stroke="#000000" paint-order="fill stroke markers" d=" M 1410 267 L 1554.0244140625 267" stroke-miterlimit="10" stroke-dasharray=""/></g><g><path fill="none" stroke="#000000" paint-order="fill stroke markers" d=" M 1410 277 L 1554.0244140625 277" stroke-miterlimit="10" stroke-dasharray=""/></g><g><g><path fill="none" stroke="none"/><text fill="#000000" stroke="none" font-family="Arial" font-size="13px" font-style="normal" font-weight="bold" text-decoration="undefined" x="1480.51220703125" y="325.5" text-anchor="middle" dominant-baseline="central" transform="matrix(1 0 0 1 2 -70)">UserRouter</text></g></g><g><g><path fill="none" stroke="none"/><text fill="#000000" stroke="none" font-family="Arial" font-size="13px" font-style="normal" font-weight="normal" text-decoration="undefined" x="1413" y="358.5" text-anchor="start" dominant-baseline="central" transform="matrix(1 0 0 1 2 -70)">+POST_users()</text></g></g><g><g><path fill="none" stroke="none"/><text fill="#000000" stroke="none" font-family="Arial" font-size="13px" font-style="normal" font-weight="normal" text-decoration="undefined" x="1413" y="373.5" text-anchor="start" dominant-baseline="central" transform="matrix(1 0 0 1 2 -70)">+GET_users_by_id()</text></g></g><g><g><path fill="none" stroke="none"/><text fill="#000000" stroke="none" font-family="Arial" font-size="13px" font-style="normal" font-weight="normal" text-decoration="undefined" x="1413" y="388.5" text-anchor="start" dominant-baseline="central" transform="matrix(1 0 0 1 2 -70)">+PUT_users_by_id()</text></g></g><g><g><path fill="none" stroke="none"/><text fill="#000000" stroke="none" font-family="Arial" font-size="13px" font-style="normal" font-weight="normal" text-decoration="undefined" x="1413" y="403.5" text-anchor="start" dominant-baseline="central" transform="matrix(1 0 0 1 2 -70)">+POST_users_avatar()</text></g></g><g><rect fill="#C0C0C0" stroke="none" x="1111" y="511" width="209.0751953125" height="88" transform="matrix(1 0 0 1 2 -70)" fill-opacity="0.2"/></g><g><rect fill="#ffffff" stroke="none" x="1104" y="504" width="209.0751953125" height="88" transform="matrix(1 0 0 1 2 -70)"/></g><g><path fill="none" stroke="#000000" paint-order="fill stroke markers" d=" M 1106 434 L 1315.0751953125 434 L 1315.0751953125 522 L 1106 522 L 1106 434 Z Z" stroke-miterlimit="10" stroke-dasharray=""/></g><g><path fill="none" stroke="#000000" paint-order="fill stroke markers" d=" M 1106 459 L 1315.0751953125 459" stroke-miterlimit="10" stroke-dasharray=""/></g><g><path fill="none" stroke="#000000" paint-order="fill stroke markers" d=" M 1106 469 L 1315.0751953125 469" stroke-miterlimit="10" stroke-dasharray=""/></g><g><g><path fill="none" stroke="none"/><text fill="#000000" stroke="none" font-family="Arial" font-size="13px" font-style="normal" font-weight="bold" text-decoration="undefined" x="1209.03759765625" y="517.5" text-anchor="middle" dominant-baseline="central" transform="matrix(1 0 0 1 2 -70)">TokenService</text></g></g><g><g><path fill="none" stroke="none"/><text fill="#000000" stroke="none" font-family="Arial" font-size="13px" font-style="normal" font-weight="normal" text-decoration="undefined" x="1109" y="550.5" text-anchor="start" dominant-baseline="central" transform="matrix(1 0 0 1 2 -70)">+create_refresh_token(user_id, ttl)</text></g></g><g><g><path fill="none" stroke="none"/><text fill="#000000" stroke="none" font-family="Arial" font-size="13px" font-style="normal" font-weight="normal" text-decoration="undefined" x="1109" y="565.5" text-anchor="start" dominant-baseline="central" transform="matrix(1 0 0 1 2 -70)">+revoke_refresh_token(token)</text></g></g><g><g><path fill="none" stroke="none"/><text fill="#000000" stroke="none" font-family="Arial" font-size="13px" font-style="normal" font-weight="normal" text-decoration="undefined" x="1109" y="580.5" text-anchor="start" dominant-baseline="central" transform="matrix(1 0 0 1 2 -70)">+verify_refresh_token(token)</text></g></g><g><rect fill="#C0C0C0" stroke="none" x="1375" y="471" width="230.0478515625" height="148" transform="matrix(1 0 0 1 2 -70)" fill-opacity="0.2"/></g><g><rect fill="#ffffff" stroke="none" x="1368" y="464" width="230.0478515625" height="148" transform="matrix(1 0 0 1 2 -70)"/></g><g><path fill="none" stroke="#000000" paint-order="fill stroke markers" d=" M 1370 394 L 1600.0478515625 394 L 1600.0478515625 542 L 1370 542 L 1370 394 Z Z" stroke-miterlimit="10" stroke-dasharray=""/></g><g><path fill="none" stroke="#000000" paint-order="fill stroke markers" d=" M 1370 419 L 1600.0478515625 419" stroke-miterlimit="10" stroke-dasharray=""/></g><g><path fill="none" stroke="#000000" paint-order="fill stroke markers" d=" M 1370 429 L 1600.0478515625 429" stroke-miterlimit="10" stroke-dasharray=""/></g><g><g><path fill="none" stroke="none"/><text fill="#000000" stroke="none" font-family="Arial" font-size="13px" font-style="normal" font-weight="bold" text-decoration="undefined" x="1483.52392578125" y="477.5" text-anchor="middle" dominant-baseline="central" transform="matrix(1 0 0 1 2 -70)">UserService</text></g></g><g><g><path fill="none" stroke="none"/><text fill="#000000" stroke="none" font-family="Arial" font-size="13px" font-style="normal" font-weight="normal" text-decoration="undefined" x="1373" y="510.5" text-anchor="start" dominant-baseline="central" transform="matrix(1 0 0 1 2 -70)">+create_user(payload): User</text></g></g><g><g><path fill="none" stroke="none"/><text fill="#000000" stroke="none" font-family="Arial" font-size="13px" font-style="normal" font-weight="normal" text-decoration="undefined" x="1373" y="525.5" text-anchor="start" dominant-baseline="central" transform="matrix(1 0 0 1 2 -70)">+get_user_by_id(id): User</text></g></g><g><g><path fill="none" stroke="none"/><text fill="#000000" stroke="none" font-family="Arial" font-size="13px" font-style="normal" font-weight="normal" text-decoration="undefined" x="1373" y="540.5" text-anchor="start" dominant-baseline="central" transform="matrix(1 0 0 1 2 -70)">+update_user(id, payload)</text></g></g><g><g><path fill="none" stroke="none"/><text fill="#000000" stroke="none" font-family="Arial" font-size="13px" font-style="normal" font-weight="normal" text-decoration="undefined" x="1373" y="555.5" text-anchor="start" dominant-baseline="central" transform="matrix(1 0 0 1 2 -70)">+change_password(user_id, old, new)</text></g></g><g><g><path fill="none" stroke="none"/><text fill="#000000" stroke="none" font-family="Arial" font-size="13px" font-style="normal" font-weight="normal" text-decoration="undefined" x="1373" y="570.5" text-anchor="start" dominant-baseline="central" transform="matrix(1 0 0 1 2 -70)">+assign_role(user_id, role_name)</text></g></g><g><g><path fill="none" stroke="none"/><text fill="#000000" stroke="none" font-family="Arial" font-size="13px" font-style="normal" font-weight="normal" text-decoration="undefined" x="1373" y="585.5" text-anchor="start" dominant-baseline="central" transform="matrix(1 0 0 1 2 -70)">+remove_role(user_id, role_name)</text></g></g><g><g><path fill="none" stroke="none"/><text fill="#000000" stroke="none" font-family="Arial" font-size="13px" font-style="normal" font-weight="normal" text-decoration="undefined" x="1373" y="600.5" text-anchor="start" dominant-baseline="central" transform="matrix(1 0 0 1 2 -70)">+list_users(filters, paging)</text></g></g><g><path fill="none" stroke="#000000" paint-order="fill stroke markers" d=" M 77 353 L 117 235" stroke-miterlimit="10" stroke-dasharray=""/></g><g><path fill="#FFFFFF" stroke="none" paint-order="stroke fill markers" d=" M 117.72407280458461 245.97614315566545 L 117 235 L 109.7506915335492 243.2733020468399 L 109.93713581452624 255.83544934714757"/></g><g><path fill="none" stroke="#000000" paint-order="fill stroke markers" d=" M 117.72407280458461 245.97614315566545 L 117 235 L 109.7506915335492 243.2733020468399 L 109.93713581452624 255.83544934714757 L 117.72407280458461 245.97614315566545" stroke-miterlimit="10" stroke-dasharray=""/></g><g><path fill="none" stroke="#000000" paint-order="fill stroke markers" d=" M 191 353 L 149 235" stroke-miterlimit="10" stroke-dasharray=""/></g><g><path fill="#FFFFFF" stroke="none" paint-order="stroke fill markers" d=" M 156.37359330369398 243.16272759509462 L 149 235 L 148.44199779128374 245.98583786222372 L 156.37714264158618 255.7262578977897"/></g><g><path fill="none" stroke="#000000" paint-order="fill stroke markers" d=" M 156.37359330369398 243.16272759509462 L 149 235 L 148.44199779128374 245.98583786222372 L 156.37714264158618 255.7262578977897 L 156.37359330369398 243.16272759509462" stroke-miterlimit="10" stroke-dasharray=""/></g><g><path fill="none" stroke="#000000" paint-order="fill stroke markers" d=" M 251 353 L 306 282 L 369 230" stroke-miterlimit="10" stroke-dasharray=""/></g><g><path fill="#FFFFFF" stroke="none" paint-order="stroke fill markers" d=" M 363.8419429782366 239.7156805093744 L 369 230 L 358.48267933014364 233.2227264741848 L 352.03309344995336 244.0044308032131"/></g><g><path fill="none" stroke="#000000" paint-order="fill stroke markers" d=" M 363.8419429782366 239.7156805093744 L 369 230 L 358.48267933014364 233.2227264741848 L 352.03309344995336 244.0044308032131 L 363.8419429782366 239.7156805093744" stroke-miterlimit="10" stroke-dasharray=""/></g><g><path fill="none" stroke="#000000" paint-order="fill stroke markers" d=" M 391 329 L 402 283 L 423 247" stroke-miterlimit="10" stroke-dasharray=""/></g><g><path fill="#FFFFFF" stroke="none" paint-order="stroke fill markers" d=" M 421.515415218025 257.8993581473924 L 423 247 L 414.24322997681713 253.65725009002114 L 411.9148374384701 266.00313581976553"/></g><g><path fill="none" stroke="#000000" paint-order="fill stroke markers" d=" M 421.515415218025 257.8993581473924 L 423 247 L 414.24322997681713 253.65725009002114 L 411.9148374384701 266.00313581976553 L 421.515415218025 257.8993581473924" stroke-miterlimit="10" stroke-dasharray=""/></g><g><path fill="none" stroke="#000000" paint-order="fill stroke markers" d=" M 532 329 L 530 282 L 522 247" stroke-miterlimit="10" stroke-dasharray=""/></g><g><path fill="#FFFFFF" stroke="none" paint-order="stroke fill markers" d=" M 528.3681802008985 255.96918507607495 L 522 247 L 520.1608118148635 257.84515499288295 L 526.9021456330471 268.44688714458107"/></g><g><path fill="none" stroke="#000000" paint-order="fill stroke markers" d=" M 528.3681802008985 255.96918507607495 L 522 247 L 520.1608118148635 257.84515499288295 L 526.9021456330471 268.44688714458107 L 528.3681802008985 255.96918507607495" stroke-miterlimit="10" stroke-dasharray=""/></g><g><path fill="none" stroke="#000000" paint-order="fill stroke markers" d=" M 664 337 L 642 282 L 608 247" stroke-miterlimit="10" stroke-dasharray=""/></g><g><path fill="#FFFFFF" stroke="none" paint-order="stroke fill markers" d=" M 618.1006066443656 251.35634541970637 L 608 247 L 612.0618060648635 257.2226088397942 L 623.3292850537915 262.780146378903"/></g><g><path fill="none" stroke="#000000" paint-order="fill stroke markers" d=" M 618.1006066443656 251.35634541970637 L 608 247 L 612.0618060648635 257.2226088397942 L 623.3292850537915 262.780146378903 L 618.1006066443656 251.35634541970637" stroke-miterlimit="10" stroke-dasharray=""/></g><g><path fill="none" stroke="#000000" paint-order="fill stroke markers" d=" M 809 305 L 802 282 L 619 191" stroke-miterlimit="10" stroke-dasharray=""/></g><g><path fill="#FFFFFF" stroke="none" paint-order="stroke fill markers" d=" M 629.97400632465 191.75576794490217 L 619 191 L 626.2253856501003 199.29420292778786 L 638.6988799235337 200.79561788547306"/></g><g><path fill="none" stroke="#000000" paint-order="fill stroke markers" d=" M 629.97400632465 191.75576794490217 L 619 191 L 626.2253856501003 199.29420292778786 L 638.6988799235337 200.79561788547306 L 629.97400632465 191.75576794490217" stroke-miterlimit="10" stroke-dasharray=""/></g><g><path fill="none" stroke="#000000" paint-order="fill stroke markers" d=" M 959 321 L 946 282 L 619 171" stroke-miterlimit="10" stroke-dasharray=""/></g><g><path fill="#000000" stroke="none" paint-order="stroke fill markers" d=" M 629.9764451122115 170.2805191464628 L 619 171 L 627.2702685626367 178.2527689816967 L 639.8324927629168 178.07158011218277"/></g><g><path fill="none" stroke="#000000" paint-order="fill stroke markers" d=" M 629.9764451122115 170.2805191464628 L 619 171 L 627.2702685626367 178.2527689816967 L 639.8324927629168 178.07158011218277 L 629.9764451122115 170.2805191464628" stroke-miterlimit="10" stroke-dasharray=""/></g><g><path fill="none" stroke="#000000" paint-order="fill stroke markers" d=" M 1206 99 L 1209 217" stroke-miterlimit="10" stroke-dasharray="3"/></g><g><path fill="none" stroke="#000000" paint-order="fill stroke markers" d=" M 1204.5335524011095 206.9475950217689 L 1209 217 L 1212.9498683423508 206.73362088766953" stroke-miterlimit="10" stroke-dasharray=""/></g><g><path fill="none" stroke="#000000" paint-order="fill stroke markers" d=" M 1211 352 L 1210 433" stroke-miterlimit="10" stroke-dasharray="3"/></g><g><path fill="none" stroke="#000000" paint-order="fill stroke markers" d=" M 1205.9162585671645 422.78613413492513 L 1210 433 L 1214.3346525555537 422.89006492490523" stroke-miterlimit="10" stroke-dasharray=""/></g><g><path fill="none" stroke="#000000" paint-order="fill stroke markers" d=" M 1312 352 L 1373 393" stroke-miterlimit="10" stroke-dasharray="3"/></g><g><path fill="none" stroke="#000000" paint-order="fill stroke markers" d=" M 1362.2172553397957 390.8245879487241 L 1373 393 L 1366.9136967442987 383.8371995176344" stroke-miterlimit="10" stroke-dasharray=""/></g><g><path fill="none" stroke="#000000" paint-order="fill stroke markers" d=" M 1483 346 L 1484 393" stroke-miterlimit="10" stroke-dasharray="3"/></g><g><path fill="none" stroke="#000000" paint-order="fill stroke markers" d=" M 1479.5752565323953 382.9291685921226 L 1484 393 L 1487.9923870697423 382.7500807083493" stroke-miterlimit="10" stroke-dasharray=""/></g></g></svg>