<svg version="1.1" xmlns="http://www.w3.org/2000/svg" xmlns:xlink="http://www.w3.org/1999/xlink" width="741" height="501"><defs/><g><g><rect fill="#C0C0C0" stroke="none" x="231" y="439" width="264.71875" height="146" transform="matrix(1 0 0 1 2 -246)" fill-opacity="0.2"/></g><g><rect fill="#ffffff" stroke="none" x="224" y="432" width="264.71875" height="146" transform="matrix(1 0 0 1 2 -246)"/></g><g><path fill="none" stroke="#000000" paint-order="fill stroke markers" d=" M 226 186 L 490.71875 186 L 490.71875 332 L 226 332 L 226 186 Z Z" stroke-miterlimit="10" stroke-dasharray=""/></g><g><path fill="none" stroke="#000000" paint-order="fill stroke markers" d=" M 226 211 L 490.71875 211" stroke-miterlimit="10" stroke-dasharray=""/></g><g><path fill="none" stroke="#000000" paint-order="fill stroke markers" d=" M 226 279 L 490.71875 279" stroke-miterlimit="10" stroke-dasharray=""/></g><g><g><path fill="none" stroke="none"/><text fill="#000000" stroke="none" font-family="Arial" font-size="13px" font-style="normal" font-weight="bold" text-decoration="undefined" x="356.859375" y="445.5" text-anchor="middle" dominant-baseline="central" transform="matrix(1 0 0 1 2 -246)">WebSocketConnection</text></g></g><g><g><path fill="none" stroke="none"/><text fill="#000000" stroke="none" font-family="Arial" font-size="13px" font-style="normal" font-weight="normal" text-decoration="undefined" x="229" y="468.5" text-anchor="start" dominant-baseline="central" transform="matrix(1 0 0 1 2 -246)">+String connectionId</text></g></g><g><g><path fill="none" stroke="none"/><text fill="#000000" stroke="none" font-family="Arial" font-size="13px" font-style="normal" font-weight="normal" text-decoration="undefined" x="229" y="483.5" text-anchor="start" dominant-baseline="central" transform="matrix(1 0 0 1 2 -246)">+String userId</text></g></g><g><g><path fill="none" stroke="none"/><text fill="#000000" stroke="none" font-family="Arial" font-size="13px" font-style="normal" font-weight="normal" text-decoration="undefined" x="229" y="498.5" text-anchor="start" dominant-baseline="central" transform="matrix(1 0 0 1 2 -246)">+String sessionStatus</text></g></g><g><g><path fill="none" stroke="none"/><text fill="#000000" stroke="none" font-family="Arial" font-size="13px" font-style="normal" font-weight="normal" text-decoration="undefined" x="229" y="513.5" text-anchor="start" dominant-baseline="central" transform="matrix(1 0 0 1 2 -246)">+Date connectedAt</text></g></g><g><g><path fill="none" stroke="none"/><text fill="#000000" stroke="none" font-family="Arial" font-size="13px" font-style="normal" font-weight="normal" text-decoration="undefined" x="229" y="536.5" text-anchor="start" dominant-baseline="central" transform="matrix(1 0 0 1 2 -246)">+void open()</text></g></g><g><g><path fill="none" stroke="none"/><text fill="#000000" stroke="none" font-family="Arial" font-size="13px" font-style="normal" font-weight="normal" text-decoration="undefined" x="229" y="551.5" text-anchor="start" dominant-baseline="central" transform="matrix(1 0 0 1 2 -246)">+void close()</text></g></g><g><g><path fill="none" stroke="none"/><text fill="#000000" stroke="none" font-family="Arial" font-size="13px" font-style="normal" font-weight="normal" text-decoration="undefined" x="229" y="566.5" text-anchor="start" dominant-baseline="central" transform="matrix(1 0 0 1 2 -246)">+void sendMessage(Notification notification)</text></g></g><g><rect fill="#C0C0C0" stroke="none" x="231" y="263" width="278.1376953125" height="101" transform="matrix(1 0 0 1 2 -246)" fill-opacity="0.2"/></g><g><rect fill="#ffffff" stroke="none" x="224" y="256" width="278.1376953125" height="101" transform="matrix(1 0 0 1 2 -246)"/></g><g><path fill="none" stroke="#000000" paint-order="fill stroke markers" d=" M 226 10 L 504.1376953125 10 L 504.1376953125 111 L 226 111 L 226 10 Z Z" stroke-miterlimit="10" stroke-dasharray=""/></g><g><path fill="none" stroke="#000000" paint-order="fill stroke markers" d=" M 226 35 L 504.1376953125 35" stroke-miterlimit="10" stroke-dasharray=""/></g><g><path fill="none" stroke="#000000" paint-order="fill stroke markers" d=" M 226 73 L 504.1376953125 73" stroke-miterlimit="10" stroke-dasharray=""/></g><g><g><path fill="none" stroke="none"/><text fill="#000000" stroke="none" font-family="Arial" font-size="13px" font-style="italic" font-weight="bold" text-decoration="undefined" x="363.56884765625" y="269.5" text-anchor="middle" dominant-baseline="central" transform="matrix(1 0 0 1 2 -246)">NotificationChannel</text></g></g><g><g><path fill="none" stroke="none"/><text fill="#000000" stroke="none" font-family="Arial" font-size="13px" font-style="normal" font-weight="normal" text-decoration="undefined" x="229" y="292.5" text-anchor="start" dominant-baseline="central" transform="matrix(1 0 0 1 2 -246)">+String channelId</text></g></g><g><g><path fill="none" stroke="none"/><text fill="#000000" stroke="none" font-family="Arial" font-size="13px" font-style="normal" font-weight="normal" text-decoration="undefined" x="229" y="307.5" text-anchor="start" dominant-baseline="central" transform="matrix(1 0 0 1 2 -246)">+String type[“WebSocket","Push", "Email", etc]</text></g></g><g><g><path fill="none" stroke="none"/><text fill="#000000" stroke="none" font-family="Arial" font-size="13px" font-style="normal" font-weight="normal" text-decoration="undefined" x="229" y="330.5" text-anchor="start" dominant-baseline="central" transform="matrix(1 0 0 1 2 -246)">+void configure()</text></g></g><g><g><path fill="none" stroke="none"/><text fill="#000000" stroke="none" font-family="Arial" font-size="13px" font-style="normal" font-weight="normal" text-decoration="undefined" x="229" y="345.5" text-anchor="start" dominant-baseline="central" transform="matrix(1 0 0 1 2 -246)">+void deliver(Notification notification)</text></g></g><g><path fill="none" stroke="#000000" paint-order="fill stroke markers" d=" M 361 185 L 363 112" stroke-miterlimit="10" stroke-dasharray=""/></g><g><path fill="#FFFFFF" stroke="none" paint-order="stroke fill markers" d=" M 370.8592275621258 132.5482977914649 L 363 112 L 354.02747239388196 132.08715381425276"/></g><g><path fill="none" stroke="#000000" paint-order="fill stroke markers" d=" M 370.8592275621258 132.5482977914649 L 363 112 L 354.02747239388196 132.08715381425276 L 370.8592275621258 132.5482977914649" stroke-miterlimit="10" stroke-dasharray=""/></g><g><rect fill="#ffffff" stroke="none" x="329" y="387" width="33.591796875" height="13" transform="matrix(1 0 0 1 2 -246)"/></g><g><g><path fill="none" stroke="none"/><text fill="#000000" stroke="none" font-family="Arial" font-size="13px" font-style="normal" font-weight="normal" text-decoration="undefined" x="345.7958984375" y="393.5" text-anchor="middle" dominant-baseline="central" transform="matrix(1 0 0 1 2 -246)">+继承</text></g></g><g><rect fill="#C0C0C0" stroke="none" x="551" y="455" width="184" height="116" transform="matrix(1 0 0 1 2 -246)" fill-opacity="0.2"/></g><g><rect fill="#ffffff" stroke="none" x="544" y="448" width="184" height="116" transform="matrix(1 0 0 1 2 -246)"/></g><g><path fill="none" stroke="#000000" paint-order="fill stroke markers" d=" M 546 202 L 730 202 L 730 318 L 546 318 L 546 202 Z Z" stroke-miterlimit="10" stroke-dasharray=""/></g><g><path fill="none" stroke="#000000" paint-order="fill stroke markers" d=" M 546 227 L 730 227" stroke-miterlimit="10" stroke-dasharray=""/></g><g><path fill="none" stroke="#000000" paint-order="fill stroke markers" d=" M 546 280 L 730 280" stroke-miterlimit="10" stroke-dasharray=""/></g><g><g><path fill="none" stroke="none"/><text fill="#000000" stroke="none" font-family="Arial" font-size="13px" font-style="normal" font-weight="bold" text-decoration="undefined" x="636.5" y="461.5" text-anchor="middle" dominant-baseline="central" transform="matrix(1 0 0 1 2 -246)">Notification</text></g></g><g><g><path fill="none" stroke="none"/><text fill="#000000" stroke="none" font-family="Arial" font-size="13px" font-style="normal" font-weight="normal" text-decoration="undefined" x="549" y="484.5" text-anchor="start" dominant-baseline="central" transform="matrix(1 0 0 1 2 -246)">+String notificationId</text></g></g><g><g><path fill="none" stroke="none"/><text fill="#000000" stroke="none" font-family="Arial" font-size="13px" font-style="normal" font-weight="normal" text-decoration="undefined" x="549" y="499.5" text-anchor="start" dominant-baseline="central" transform="matrix(1 0 0 1 2 -246)">+String content</text></g></g><g><g><path fill="none" stroke="none"/><text fill="#000000" stroke="none" font-family="Arial" font-size="13px" font-style="normal" font-weight="normal" text-decoration="undefined" x="549" y="514.5" text-anchor="start" dominant-baseline="central" transform="matrix(1 0 0 1 2 -246)">+Date createdAt</text></g></g><g><g><path fill="none" stroke="none"/><text fill="#000000" stroke="none" font-family="Arial" font-size="13px" font-style="normal" font-weight="normal" text-decoration="undefined" x="549" y="537.5" text-anchor="start" dominant-baseline="central" transform="matrix(1 0 0 1 2 -246)">+send()</text></g></g><g><g><path fill="none" stroke="none"/><text fill="#000000" stroke="none" font-family="Arial" font-size="13px" font-style="normal" font-weight="normal" text-decoration="undefined" x="549" y="552.5" text-anchor="start" dominant-baseline="central" transform="matrix(1 0 0 1 2 -246)">+markAsRead()</text></g></g><g><path fill="none" stroke="#000000" paint-order="fill stroke markers" d=" M 436 112 L 557 201" stroke-miterlimit="10" stroke-dasharray="3"/></g><g><path fill="none" stroke="#000000" paint-order="fill stroke markers" d=" M 546.3191674364174 198.36944573355493 L 557 201 L 551.3075936256552 191.58742810549012" stroke-miterlimit="10" stroke-dasharray=""/></g><g><rect fill="#ffffff" stroke="none" x="486" y="383" width="33.591796875" height="13" transform="matrix(1 0 0 1 2 -246)"/></g><g><g><path fill="none" stroke="none"/><text fill="#000000" stroke="none" font-family="Arial" font-size="13px" font-style="normal" font-weight="normal" text-decoration="undefined" x="502.7958984375" y="389.5" text-anchor="middle" dominant-baseline="central" transform="matrix(1 0 0 1 2 -246)">+依赖</text></g></g><g><path fill="none" stroke="#000000" paint-order="fill stroke markers" d=" M 492 259 L 545 260" stroke-miterlimit="10" stroke-dasharray="3"/></g><g><path fill="none" stroke="#000000" paint-order="fill stroke markers" d=" M 534.759722878895 264.0170542046347 L 545 260 L 534.9185443379461 255.59951687492833" stroke-miterlimit="10" stroke-dasharray=""/></g><g><rect fill="#ffffff" stroke="none" x="500" y="484" width="33.591796875" height="13" transform="matrix(1 0 0 1 2 -246)"/></g><g><g><path fill="none" stroke="none"/><text fill="#000000" stroke="none" font-family="Arial" font-size="13px" font-style="normal" font-weight="normal" text-decoration="undefined" x="516.7958984375" y="490.5" text-anchor="middle" dominant-baseline="central" transform="matrix(1 0 0 1 2 -246)">+依赖</text></g></g><g><rect fill="#C0C0C0" stroke="none" x="599" y="671" width="96.353515625" height="73" transform="matrix(1 0 0 1 2 -246)" fill-opacity="0.2"/></g><g><rect fill="#ffffff" stroke="none" x="592" y="664" width="96.353515625" height="73" transform="matrix(1 0 0 1 2 -246)"/></g><g><path fill="none" stroke="#000000" paint-order="fill stroke markers" d=" M 594 418 L 690.353515625 418 L 690.353515625 491 L 594 491 L 594 418 Z Z" stroke-miterlimit="10" stroke-dasharray=""/></g><g><path fill="none" stroke="#000000" paint-order="fill stroke markers" d=" M 594 443 L 690.353515625 443" stroke-miterlimit="10" stroke-dasharray=""/></g><g><path fill="none" stroke="#000000" paint-order="fill stroke markers" d=" M 594 481 L 690.353515625 481" stroke-miterlimit="10" stroke-dasharray=""/></g><g><g><path fill="none" stroke="none"/><text fill="#000000" stroke="none" font-family="Arial" font-size="13px" font-style="normal" font-weight="bold" text-decoration="undefined" x="640.6767578125" y="677.5" text-anchor="middle" dominant-baseline="central" transform="matrix(1 0 0 1 2 -246)">Order</text></g></g><g><g><path fill="none" stroke="none"/><text fill="#000000" stroke="none" font-family="Arial" font-size="13px" font-style="normal" font-weight="normal" text-decoration="undefined" x="597" y="700.5" text-anchor="start" dominant-baseline="central" transform="matrix(1 0 0 1 2 -246)">+String orderId</text></g></g><g><g><path fill="none" stroke="none"/><text fill="#000000" stroke="none" font-family="Arial" font-size="13px" font-style="normal" font-weight="normal" text-decoration="undefined" x="597" y="715.5" text-anchor="start" dominant-baseline="central" transform="matrix(1 0 0 1 2 -246)">+String status</text></g></g><g><path fill="none" stroke="#000000" paint-order="fill stroke markers" d=" M 639 319 L 641 417" stroke-miterlimit="10" stroke-dasharray=""/></g><g><rect fill="#ffffff" stroke="none" x="636" y="607" width="33.591796875" height="13" transform="matrix(1 0 0 1 2 -246)"/></g><g><g><path fill="none" stroke="none"/><text fill="#000000" stroke="none" font-family="Arial" font-size="13px" font-style="normal" font-weight="normal" text-decoration="undefined" x="652.7958984375" y="613.5" text-anchor="middle" dominant-baseline="central" transform="matrix(1 0 0 1 2 -246)">+关联</text></g></g><g><rect fill="#C0C0C0" stroke="none" x="319" y="671" width="91.29443359375" height="73" transform="matrix(1 0 0 1 2 -246)" fill-opacity="0.2"/></g><g><rect fill="#ffffff" stroke="none" x="312" y="664" width="91.29443359375" height="73" transform="matrix(1 0 0 1 2 -246)"/></g><g><path fill="none" stroke="#000000" paint-order="fill stroke markers" d=" M 314 418 L 405.29443359375 418 L 405.29443359375 491 L 314 491 L 314 418 Z Z" stroke-miterlimit="10" stroke-dasharray=""/></g><g><path fill="none" stroke="#000000" paint-order="fill stroke markers" d=" M 314 443 L 405.29443359375 443" stroke-miterlimit="10" stroke-dasharray=""/></g><g><path fill="none" stroke="#000000" paint-order="fill stroke markers" d=" M 314 481 L 405.29443359375 481" stroke-miterlimit="10" stroke-dasharray=""/></g><g><g><path fill="none" stroke="none"/><text fill="#000000" stroke="none" font-family="Arial" font-size="13px" font-style="normal" font-weight="bold" text-decoration="undefined" x="358.147216796875" y="677.5" text-anchor="middle" dominant-baseline="central" transform="matrix(1 0 0 1 2 -246)">User</text></g></g><g><g><path fill="none" stroke="none"/><text fill="#000000" stroke="none" font-family="Arial" font-size="13px" font-style="normal" font-weight="normal" text-decoration="undefined" x="317" y="700.5" text-anchor="start" dominant-baseline="central" transform="matrix(1 0 0 1 2 -246)">+String userId</text></g></g><g><g><path fill="none" stroke="none"/><text fill="#000000" stroke="none" font-family="Arial" font-size="13px" font-style="normal" font-weight="normal" text-decoration="undefined" x="317" y="715.5" text-anchor="start" dominant-baseline="central" transform="matrix(1 0 0 1 2 -246)">+String name</text></g></g><g><path fill="none" stroke="#000000" paint-order="fill stroke markers" d=" M 553 319 L 406 421" stroke-miterlimit="10" stroke-dasharray=""/></g><g><rect fill="#ffffff" stroke="none" x="469" y="622" width="33.591796875" height="13" transform="matrix(1 0 0 1 2 -246)"/></g><g><g><path fill="none" stroke="none"/><text fill="#000000" stroke="none" font-family="Arial" font-size="13px" font-style="normal" font-weight="normal" text-decoration="undefined" x="485.7958984375" y="628.5" text-anchor="middle" dominant-baseline="central" transform="matrix(1 0 0 1 2 -246)">+关联</text></g></g><g><path fill="none" stroke="#000000" paint-order="fill stroke markers" d=" M 358 333 L 359 417" stroke-miterlimit="10" stroke-dasharray=""/></g><g><path fill="none" stroke="#000000" paint-order="fill stroke markers" d=" M 354.66980485351166 406.888154965916 L 359 417 L 363.0882438419653 406.78793545414874" stroke-miterlimit="10" stroke-dasharray=""/></g><g><rect fill="#ffffff" stroke="none" x="342" y="598" width="59.591796875" height="13" transform="matrix(1 0 0 1 2 -246)"/></g><g><g><path fill="none" stroke="none"/><text fill="#000000" stroke="none" font-family="Arial" font-size="13px" font-style="normal" font-weight="normal" text-decoration="undefined" x="371.7958984375" y="604.5" text-anchor="middle" dominant-baseline="central" transform="matrix(1 0 0 1 2 -246)">+有向关联</text></g></g><g><rect fill="#C0C0C0" stroke="none" x="15" y="439" width="184" height="146" transform="matrix(1 0 0 1 2 -246)" fill-opacity="0.2"/></g><g><rect fill="#ffffff" stroke="none" x="8" y="432" width="184" height="146" transform="matrix(1 0 0 1 2 -246)"/></g><g><path fill="none" stroke="#000000" paint-order="fill stroke markers" d=" M 10 186 L 194 186 L 194 332 L 10 332 L 10 186 Z Z" stroke-miterlimit="10" stroke-dasharray=""/></g><g><path fill="none" stroke="#000000" paint-order="fill stroke markers" d=" M 10 211 L 194 211" stroke-miterlimit="10" stroke-dasharray=""/></g><g><path fill="none" stroke="#000000" paint-order="fill stroke markers" d=" M 10 294 L 194 294" stroke-miterlimit="10" stroke-dasharray=""/></g><g><g><path fill="none" stroke="none"/><text fill="#000000" stroke="none" font-family="Arial" font-size="13px" font-style="normal" font-weight="bold" text-decoration="undefined" x="100.5" y="445.5" text-anchor="middle" dominant-baseline="central" transform="matrix(1 0 0 1 2 -246)">PushSubscription</text></g></g><g><g><path fill="none" stroke="none"/><text fill="#000000" stroke="none" font-family="Arial" font-size="13px" font-style="normal" font-weight="normal" text-decoration="undefined" x="13" y="468.5" text-anchor="start" dominant-baseline="central" transform="matrix(1 0 0 1 2 -246)">+String subscriptionId</text></g></g><g><g><path fill="none" stroke="none"/><text fill="#000000" stroke="none" font-family="Arial" font-size="13px" font-style="normal" font-weight="normal" text-decoration="undefined" x="13" y="483.5" text-anchor="start" dominant-baseline="central" transform="matrix(1 0 0 1 2 -246)">+String userId</text></g></g><g><g><path fill="none" stroke="none"/><text fill="#000000" stroke="none" font-family="Arial" font-size="13px" font-style="normal" font-weight="normal" text-decoration="undefined" x="13" y="498.5" text-anchor="start" dominant-baseline="central" transform="matrix(1 0 0 1 2 -246)">+String endpoint</text></g></g><g><g><path fill="none" stroke="none"/><text fill="#000000" stroke="none" font-family="Arial" font-size="13px" font-style="normal" font-weight="normal" text-decoration="undefined" x="13" y="513.5" text-anchor="start" dominant-baseline="central" transform="matrix(1 0 0 1 2 -246)">+String p256dhKey</text></g></g><g><g><path fill="none" stroke="none"/><text fill="#000000" stroke="none" font-family="Arial" font-size="13px" font-style="normal" font-weight="normal" text-decoration="undefined" x="13" y="528.5" text-anchor="start" dominant-baseline="central" transform="matrix(1 0 0 1 2 -246)">+String authKey</text></g></g><g><g><path fill="none" stroke="none"/><text fill="#000000" stroke="none" font-family="Arial" font-size="13px" font-style="normal" font-weight="normal" text-decoration="undefined" x="13" y="551.5" text-anchor="start" dominant-baseline="central" transform="matrix(1 0 0 1 2 -246)">+subscribe()</text></g></g><g><g><path fill="none" stroke="none"/><text fill="#000000" stroke="none" font-family="Arial" font-size="13px" font-style="normal" font-weight="normal" text-decoration="undefined" x="13" y="566.5" text-anchor="start" dominant-baseline="central" transform="matrix(1 0 0 1 2 -246)">+unsubscribe()</text></g></g><g><path fill="none" stroke="#000000" paint-order="fill stroke markers" d=" M 195 330 L 313 419" stroke-miterlimit="10" stroke-dasharray=""/></g><g><path fill="none" stroke="#000000" paint-order="fill stroke markers" d=" M 302.3515767943003 416.24118082645566 L 313 419 L 307.42120748798624 409.5196479966248" stroke-miterlimit="10" stroke-dasharray=""/></g><g><rect fill="#ffffff" stroke="none" x="232" y="602" width="59.591796875" height="13" transform="matrix(1 0 0 1 2 -246)"/></g><g><g><path fill="none" stroke="none"/><text fill="#000000" stroke="none" font-family="Arial" font-size="13px" font-style="normal" font-weight="normal" text-decoration="undefined" x="261.7958984375" y="608.5" text-anchor="middle" dominant-baseline="central" transform="matrix(1 0 0 1 2 -246)">+有向关联</text></g></g><g><path fill="none" stroke="#000000" paint-order="fill stroke markers" d=" M 195 189 L 296 112" stroke-miterlimit="10" stroke-dasharray=""/></g><g><path fill="#FFFFFF" stroke="none" paint-order="stroke fill markers" d=" M 284.9405429423703 131.0181074134743 L 296 112 L 274.73195020090685 117.62761563571047"/></g><g><path fill="none" stroke="#000000" paint-order="fill stroke markers" d=" M 284.9405429423703 131.0181074134743 L 296 112 L 274.73195020090685 117.62761563571047 L 284.9405429423703 131.0181074134743" stroke-miterlimit="10" stroke-dasharray=""/></g><g><rect fill="#ffffff" stroke="none" x="218" y="377" width="33.591796875" height="13" transform="matrix(1 0 0 1 2 -246)"/></g><g><g><path fill="none" stroke="none"/><text fill="#000000" stroke="none" font-family="Arial" font-size="13px" font-style="normal" font-weight="normal" text-decoration="undefined" x="234.7958984375" y="383.5" text-anchor="middle" dominant-baseline="central" transform="matrix(1 0 0 1 2 -246)">+继承</text></g></g></g></svg>